<svg width="26" height="27" viewBox="0 0 26 27" fill="none" xmlns="http://www.w3.org/2000/svg">
<path d="M13.0002 0.00195312C10.4291 0.00195313 7.91568 0.76439 5.77784 2.19285C3.64 3.62131 1.97376 5.65163 0.989816 8.02707C0.00587684 10.4025 -0.251567 13.0164 0.250041 15.5381C0.751649 18.0599 1.98978 20.3763 3.80786 22.1943C5.62594 24.0124 7.94232 25.2506 10.4641 25.7522C12.9858 26.2538 15.5997 25.9963 17.9751 25.0124C20.3506 24.0284 22.3809 22.3622 23.8094 20.2244C25.2378 18.0865 26.0002 15.5731 26.0002 13.002C25.9966 9.55526 24.6258 6.25077 22.1886 3.81358C19.7514 1.3764 16.4469 0.0055929 13.0002 0.00195312ZM16.7078 13.7095L11.7078 18.7095C11.6148 18.8024 11.5045 18.8761 11.3831 18.9263C11.2618 18.9766 11.1316 19.0025 11.0002 19.0025C10.8689 19.0025 10.7387 18.9766 10.6174 18.9263C10.496 18.8761 10.3857 18.8024 10.2927 18.7095C10.1998 18.6165 10.1261 18.5062 10.0759 18.3848C10.0256 18.2635 9.99969 18.1333 9.99969 18.002C9.99969 17.8706 10.0256 17.7404 10.0759 17.6191C10.1261 17.4977 10.1998 17.3874 10.2927 17.2945L14.5865 13.002L10.2927 8.70945C10.1051 8.52181 9.99969 8.26732 9.99969 8.00195C9.99969 7.73659 10.1051 7.48209 10.2927 7.29445C10.4804 7.10681 10.7349 7.0014 11.0002 7.0014C11.2656 7.0014 11.5201 7.10681 11.7078 7.29445L16.7078 12.2945C16.8007 12.3873 16.8745 12.4976 16.9248 12.619C16.9751 12.7404 17.001 12.8705 17.001 13.002C17.001 13.1334 16.9751 13.2635 16.9248 13.3849C16.8745 13.5063 16.8007 13.6166 16.7078 13.7095Z" fill="white"/>
</svg>
