<svg width="32" height="32" viewBox="0 0 32 32" fill="none" xmlns="http://www.w3.org/2000/svg">
<g id="Lightning" clip-path="url(#clip0_6167_15031)">
<path id="Vector" d="M26.7322 15.6826L12.7322 30.6826C12.5838 30.8409 12.388 30.9467 12.1742 30.984C11.9604 31.0213 11.7404 30.988 11.5472 30.8892C11.354 30.7904 11.1982 30.6315 11.1032 30.4364C11.0083 30.2413 10.9794 30.0206 11.0209 29.8076L12.8534 20.6414L5.64965 17.9364C5.49494 17.8785 5.35697 17.7832 5.24808 17.659C5.13918 17.5348 5.06275 17.3855 5.02561 17.2246C4.98847 17.0637 4.99177 16.896 5.03523 16.7366C5.07869 16.5773 5.16094 16.4312 5.27465 16.3114L19.2747 1.31136C19.423 1.15303 19.6188 1.04725 19.8326 1.00998C20.0464 0.972711 20.2664 1.00598 20.4596 1.10476C20.6528 1.20354 20.8086 1.36248 20.9036 1.55759C20.9985 1.75269 21.0274 1.97338 20.9859 2.18636L19.1484 11.3626L26.3521 14.0639C26.5057 14.1221 26.6426 14.2173 26.7506 14.341C26.8587 14.4647 26.9346 14.6131 26.9717 14.7732C27.0087 14.9332 27.0058 15.0998 26.9632 15.2585C26.9205 15.4171 26.8395 15.5628 26.7271 15.6826H26.7322Z" fill="#C8F808"/>
</g>
<defs>
<clipPath id="clip0_6167_15031">
<rect width="32" height="32" fill="white"/>
</clipPath>
</defs>
</svg>
