<svg width="40" height="52" viewBox="0 0 40 52" fill="none" xmlns="http://www.w3.org/2000/svg">
<g id="Group 2474">
<path id="Vector" d="M4.83333 43.3333H11.3333C12.5293 43.3333 13.5 42.3627 13.5 41.1667C13.5 39.9707 12.5293 39 11.3333 39H4.83333V4.33333H35.1667V41.1667C35.1667 42.3627 36.1373 43.3333 37.3333 43.3333C38.5293 43.3333 39.5 42.3627 39.5 41.1667V4.33333C39.5 1.9435 37.5565 0 35.1667 0H4.83333C2.4435 0 0.5 1.9435 0.5 4.33333V39C0.5 41.3898 2.4435 43.3333 4.83333 43.3333Z" fill="#0047BB"/>
<path id="Vector_2" d="M18.0842 51.8347C18.8946 52.1683 19.8251 51.9842 20.4459 51.3645L23.2474 48.5641L26.0489 51.3645C26.4638 51.7794 27.0163 51.9993 27.5807 51.9993C27.8602 51.9993 28.1419 51.9452 28.4106 51.8347C29.2198 51.4988 29.7474 50.7091 29.7474 49.8327V36.3853C30.431 35.2467 30.8307 33.9207 30.8307 32.4993C30.8307 28.3177 27.428 24.916 23.2474 24.916C19.0668 24.916 15.6641 28.3177 15.6641 32.4993C15.6641 33.9207 16.0649 35.2467 16.7474 36.3853V49.8327C16.7474 50.7091 17.275 51.4988 18.0842 51.8347ZM21.0807 44.6088V39.7631C21.7676 39.9689 22.4945 40.0827 23.2474 40.0827C24.0003 40.0827 24.7272 39.9689 25.4141 39.7631V44.6088C24.1845 43.5082 22.3103 43.5082 21.0807 44.6088ZM23.2474 29.2493C25.0392 29.2493 26.4974 30.7075 26.4974 32.4993C26.4974 34.2912 25.0392 35.7493 23.2474 35.7493C21.4556 35.7493 19.9974 34.2912 19.9974 32.4993C19.9974 30.7075 21.4556 29.2493 23.2474 29.2493Z" fill="#0047BB"/>
<path id="Vector_3" d="M28.6693 15.1667C28.6693 13.9707 27.6986 13 26.5026 13H13.5026C12.3066 13 11.3359 13.9707 11.3359 15.1667C11.3359 16.3627 12.3066 17.3333 13.5026 17.3333H26.5026C27.6986 17.3333 28.6693 16.3627 28.6693 15.1667Z" fill="#0047BB"/>
</g>
</svg>
