<svg width="290" height="352" viewBox="0 0 290 352" fill="none" xmlns="http://www.w3.org/2000/svg">
<g clip-path="url(#clip0_2706_44725)">
<rect x="238.558" y="265.621" width="34.28" height="6" transform="rotate(117 238.558 265.621)" fill="#685BC7" fill-opacity="0.85"/>
<circle cx="245.158" cy="165.221" r="2.6" fill="#05C3DE" fill-opacity="0.9"/>
<circle cx="133.158" cy="242.221" r="3.6" fill="#FFED36" fill-opacity="0.6"/>
<circle cx="217.658" cy="100.721" r="7.1" fill="#C8F808" fill-opacity="0.85"/>
<circle cx="114.603" cy="355.6" r="7.6" fill="#F62584" fill-opacity="0.35"/>
<circle cx="11.1576" cy="53.2213" r="5.6" fill="#FFED36" fill-opacity="0.85"/>
<circle cx="180.158" cy="92.2213" r="3.6" fill="#9AF5FC" fill-opacity="0.85"/>
<path d="M7.99011 159.436L11.4571 154.296L17.642 154.729L20.3599 160.301L16.8929 165.441L10.708 165.009L7.99011 159.436Z" fill="#05C3DE" fill-opacity="0.75"/>
<path d="M232.025 326.481L240.632 324.808L242.305 333.415L233.698 335.088L232.025 326.481Z" fill="#C9FCBE" fill-opacity="0.75"/>
<path d="M136.784 292.789L147.842 298.182L142.449 309.241L131.39 303.847L136.784 292.789Z" fill="#9AF5FC" fill-opacity="0.6"/>
<path d="M61.3224 219.123L55.7637 217.832L54.2936 223.346L52.632 217.887L47.1218 219.371L51.0189 215.202L46.9786 211.172L52.5374 212.463L54.0074 206.949L55.669 212.408L61.1793 210.924L57.2822 215.093L61.3224 219.123Z" fill="#685BC7"/>
<path d="M14.7823 323.155L23.0225 321.952L27.4731 314.914L28.6761 323.154L35.7146 327.604L27.4744 328.807L23.0238 335.846L21.8208 327.606L14.7823 323.155Z" fill="#FF21FB" fill-opacity="0.9"/>
<path d="M63.0232 276.971L57.8131 272.647L51.1388 273.787L55.4633 268.577L54.3232 261.902L59.5333 266.227L66.2076 265.087L61.8831 270.297L63.0232 276.971Z" fill="#F8485E" fill-opacity="0.6"/>
<path d="M51.9177 72.4738L44.0132 73.2079L39.4253 79.6863L38.6911 71.7819L32.2128 67.1939L40.1172 66.4597L44.7052 59.9814L45.4393 67.8858L51.9177 72.4738Z" fill="#05C3DE" fill-opacity="0.45"/>
<path d="M234.142 187.89L230.443 184.191L225.782 186.566L228.157 181.905L224.458 178.206L229.625 179.024L232 174.363L232.818 179.53L237.985 180.348L233.324 182.723L234.142 187.89Z" fill="#F8485E"/>
</g>
<defs>
<clipPath id="clip0_2706_44725">
<rect width="290" height="352" fill="white"/>
</clipPath>
</defs>
</svg>
