<svg width="40" height="40" viewBox="0 0 40 40" fill="none" xmlns="http://www.w3.org/2000/svg">
<g id="ThumbsUp">
<path id="Vector" d="M36.5625 12.5188C36.2105 12.1199 35.7777 11.8005 35.2928 11.5817C34.8079 11.363 34.282 11.2499 33.75 11.25H25V8.75C25 7.0924 24.3415 5.50269 23.1694 4.33058C21.9973 3.15848 20.4076 2.5 18.75 2.5C18.5178 2.49983 18.2901 2.56436 18.0925 2.68635C17.8949 2.80833 17.7352 2.98295 17.6312 3.19063L11.7281 15H5C4.33696 15 3.70107 15.2634 3.23223 15.7322C2.76339 16.2011 2.5 16.837 2.5 17.5V31.25C2.5 31.913 2.76339 32.5489 3.23223 33.0178C3.70107 33.4866 4.33696 33.75 5 33.75H31.875C32.7886 33.7503 33.6709 33.4171 34.3562 32.8129C35.0415 32.2088 35.4827 31.3752 35.5969 30.4688L37.4719 15.4688C37.5383 14.9407 37.4916 14.4045 37.3348 13.8958C37.178 13.3872 36.9147 12.9178 36.5625 12.5188ZM5 17.5H11.25V31.25H5V17.5Z" fill="white"/>
</g>
</svg>
